<?xml version="1.0" encoding="iso-8859-1"?>
<!-- Generator: Adobe Illustrator 19.0.0, SVG Export Plug-In . SVG Version: 6.00 Build 0)  -->
<svg version="1.1" id="Layer_1" xmlns="http://www.w3.org/2000/svg" xmlns:xlink="http://www.w3.org/1999/xlink" x="0px" y="0px"
	 viewBox="0 0 502 502" style="enable-background:new 0 0 502 502;" xml:space="preserve">
<g>
	<g>
		<g>
			<path d="M492,107.295H10c-5.523,0-10,4.478-10,10v267.41c0,5.522,4.477,10,10,10h482c5.523,0,10-4.478,10-10v-267.41
				C502,111.772,497.523,107.295,492,107.295z M482,356.857l-41.028-41.028C446.04,308.116,449,298.899,449,289
				c0-27.019-21.981-49-49-49h-29v-29c0-27.019-21.981-49-49-49c-27.019,0-49,21.981-49,49s21.981,49,49,49h29v29
				c0,27.019,21.981,49,49,49c9.899,0,19.116-2.96,26.829-8.028l44.733,44.733H20v-247.41h204.152l38.774,38.774
				c1.953,1.952,4.512,2.929,7.071,2.929s5.119-0.977,7.071-2.929c3.905-3.905,3.905-10.237,0-14.143l-24.632-24.632H482V356.857z
				 M406.071,280.929L385.143,260H400c15.991,0,29,13.01,29,29s-13.009,29-29,29c-15.991,0-29-13.01-29-29v-14.857l20.929,20.929
				c1.953,1.952,4.512,2.929,7.071,2.929s5.119-0.977,7.071-2.929C409.976,291.167,409.976,284.835,406.071,280.929z
				 M315.928,219.071L336.857,240H322c-15.991,0-29-13.01-29-29s13.009-29,29-29c15.991,0,29,13.01,29,29v14.857l-20.929-20.929
				c-3.905-3.904-10.237-3.904-14.143,0C312.023,208.833,312.023,215.165,315.928,219.071z"/>
			<path d="M159.116,238.924c-22.595-9.35-32.204-16.102-32.204-29.608c0-10.389,7.531-22.336,27.529-22.336
				c10.842,0,19.143,2.431,25.118,4.987c4.242,1.814,9.138-0.202,10.773-4.517l0.766-2.022c1.515-3.999-0.34-8.524-4.267-10.216
				c-6.822-2.939-15.565-5.254-26.935-5.633v-17.141c0-4.447-3.605-8.051-8.051-8.051c-4.447,0-8.051,3.605-8.051,8.051v18.18
				c-23.894,3.895-39.217,20.258-39.217,41.814c0,22.595,16.362,34.542,42.853,44.931c19.219,7.791,29.348,16.622,29.348,30.906
				c0,14.804-12.466,25.452-30.906,25.452c-10.871,0-21.163-2.758-29.572-6.753c-4.306-2.046-9.43,0.059-11.037,4.547l-0.786,2.194
				c-1.368,3.82,0.3,8.093,3.934,9.898c9.126,4.531,21.512,7.566,33.566,7.774v18.18c0,4.447,3.605,8.051,8.051,8.051h0.258
				c4.447,0,8.051-3.605,8.051-8.051v-18.959c26.751-4.415,41.035-23.634,41.035-44.151
				C199.372,263.337,185.867,249.831,159.116,238.924z"/>
			<path d="M392,229c2.559,0,5.119-0.977,7.071-2.929l11-11c3.905-3.905,3.905-10.237,0-14.143c-3.905-3.904-10.237-3.904-14.143,0
				l-11,11c-3.905,3.905-3.905,10.237,0,14.143C386.881,228.023,389.441,229,392,229z"/>
			<path d="M318,303.001c2.559,0,5.119-0.977,7.071-2.929l11-11c3.905-3.905,3.905-10.237,0-14.143
				c-3.905-3.905-10.237-3.905-14.142,0l-11,11c-3.905,3.905-3.905,10.237,0,14.143C312.882,302.024,315.441,303.001,318,303.001z"
				/>
			<path d="M48,213c-5.523,0-10,4.478-10,10v121c0,5.522,4.477,10,10,10s10-4.478,10-10V223C58,217.478,53.523,213,48,213z"/>
			<path d="M48,148c-5.523,0-10,4.478-10,10v24c0,5.522,4.477,10,10,10s10-4.478,10-10v-24C58,152.478,53.523,148,48,148z"/>
		</g>
	</g>
</g>
<g>
</g>
<g>
</g>
<g>
</g>
<g>
</g>
<g>
</g>
<g>
</g>
<g>
</g>
<g>
</g>
<g>
</g>
<g>
</g>
<g>
</g>
<g>
</g>
<g>
</g>
<g>
</g>
<g>
</g>
</svg>
