<?xml version="1.0" encoding="iso-8859-1"?>
<!-- Generator: Adobe Illustrator 18.0.0, SVG Export Plug-In . SVG Version: 6.00 Build 0)  -->
<!DOCTYPE svg PUBLIC "-//W3C//DTD SVG 1.1//EN" "http://www.w3.org/Graphics/SVG/1.1/DTD/svg11.dtd">
<svg version="1.1" id="Capa_1" xmlns="http://www.w3.org/2000/svg" xmlns:xlink="http://www.w3.org/1999/xlink" x="0px" y="0px"
	 viewBox="0 0 240.035 240.035" style="enable-background:new 0 0 240.035 240.035;" xml:space="preserve">
<g>
	<path d="M234.035,99.261H102.667c-8.117-19.182-27.13-32.676-49.235-32.676C23.97,66.585,0,90.555,0,120.018
		s23.97,53.432,53.433,53.432c21.369,0,39.84-12.615,48.38-30.785l8.94,9.633c2.368,2.552,6.406,2.552,8.775,0l10.412-11.218
		l10.412,11.218c2.368,2.552,6.406,2.552,8.775,0l10.412-11.218l10.412,11.218c2.368,2.552,6.406,2.552,8.775,0l10.412-11.218
		l10.412,11.218c2.368,2.552,6.406,2.552,8.775,0l10.695-11.523h0.692c11.208,0,20.326-9.118,20.326-20.326v-15.187
		C240.035,101.948,237.349,99.261,234.035,99.261z M53.433,161.45C30.587,161.45,12,142.863,12,120.018s18.587-41.432,41.433-41.432
		s41.432,18.586,41.432,41.432S76.278,161.45,53.433,161.45z M228.035,120.448c0,4.591-3.735,8.326-8.326,8.326H106.135
		c0.472-2.851,0.729-5.774,0.729-8.756s-0.257-5.905-0.729-8.756h121.9V120.448z"/>
	<path d="M41.718,102.105c-9.877,0-17.912,8.035-17.912,17.912s8.035,17.912,17.912,17.912s17.912-8.035,17.912-17.912
		S51.595,102.105,41.718,102.105z M41.718,125.93c-3.26,0-5.912-2.652-5.912-5.912s2.652-5.912,5.912-5.912s5.912,2.652,5.912,5.912
		S44.978,125.93,41.718,125.93z"/>
</g>
<g>
</g>
<g>
</g>
<g>
</g>
<g>
</g>
<g>
</g>
<g>
</g>
<g>
</g>
<g>
</g>
<g>
</g>
<g>
</g>
<g>
</g>
<g>
</g>
<g>
</g>
<g>
</g>
<g>
</g>
</svg>
