<?xml version="1.0" encoding="iso-8859-1"?>
<!-- Generator: Adobe Illustrator 19.0.0, SVG Export Plug-In . SVG Version: 6.00 Build 0)  -->
<svg version="1.1" id="Layer_1" xmlns="http://www.w3.org/2000/svg" xmlns:xlink="http://www.w3.org/1999/xlink" x="0px" y="0px"
	 viewBox="0 0 512 512" style="enable-background:new 0 0 512 512;" xml:space="preserve">
<g>
	<g>
		<polygon points="55.893,417.181 48.231,424.844 40.488,417.101 29.571,428.017 48.231,446.676 66.809,428.097 		"/>
	</g>
</g>
<g>
	<g>
		<polygon points="471.514,178.174 463.849,185.837 456.108,178.094 445.191,189.01 463.849,207.669 482.429,189.089 		"/>
	</g>
</g>
<g>
	<g>
		<path d="M367.133,29.999L308.948,1.251c-0.588-0.291-1.199-0.509-1.821-0.658C306.167,0.221,305.141,0,304.072,0h-0.627h-101.75
			h-0.625c-1.066,0-2.09,0.22-3.049,0.592c-0.622,0.147-1.231,0.364-1.817,0.655l-58.198,28.752L80.893,57.894v307.75h52.834v35.118
			h12.981V512h15.437V400.761h180.851V512h15.437V400.761h12.981v-35.118h52.834V57.894L367.133,29.999z M133.727,350.206H96.33
			v-14.654h37.397V350.206z M133.727,320.115H96.33V67.534l37.397-18.265V320.115z M302.571,75.414V49.08l4.053-16.795
			l13.331,31.513l-42.476,89.265l19.426-80.502L302.571,75.414z M286.462,50.026l-12.069-6.073l12.741-5.377v8.666L286.462,50.026z
			 M294.809,15.437l-0.845,3.5L256,34.96l-45.6-19.246l-0.067-0.277H294.809z M237.608,43.953l-12.741,6.412V38.576L237.608,43.953z
			 M198.518,32.289l29.144,120.77L185.19,63.799L198.518,32.289z M244.853,385.322h-95.689v-19.679V41.704l36.169-17.869
			L168.271,64.17l76.582,160.943V385.322z M223.141,68.513L256,51.978l26.743,13.457l-30.172,125.036L223.141,68.513z
			 M260.289,385.323V225.114L336.872,64.17l-17.061-40.333l36.165,17.867v323.939v19.68H260.289z M408.812,350.206h-37.397v-14.654
			h37.397V350.206z M408.812,320.115h-37.397V49.268l37.397,18.265V320.115z"/>
	</g>
</g>
<g>
	<g>
		<rect x="164.241" y="305.42" width="54.132" height="15.437"/>
	</g>
</g>
<g>
	<g>
		<rect x="286.771" y="305.42" width="54.132" height="15.437"/>
	</g>
</g>
<g>
	<g>
		<rect x="244.854" y="452.515" width="15.437" height="59.479"/>
	</g>
</g>
<g>
</g>
<g>
</g>
<g>
</g>
<g>
</g>
<g>
</g>
<g>
</g>
<g>
</g>
<g>
</g>
<g>
</g>
<g>
</g>
<g>
</g>
<g>
</g>
<g>
</g>
<g>
</g>
<g>
</g>
</svg>
