<?xml version="1.0" encoding="iso-8859-1"?>
<!-- Generator: Adobe Illustrator 19.0.0, SVG Export Plug-In . SVG Version: 6.00 Build 0)  -->
<svg version="1.1" id="Layer_1" xmlns="http://www.w3.org/2000/svg" xmlns:xlink="http://www.w3.org/1999/xlink" x="0px" y="0px"
	 viewBox="0 0 485 485" style="enable-background:new 0 0 485 485;" xml:space="preserve">
<g>
	<g>
		<g>
			<path d="M340.4,360.553c-8.932-4.706-30.926-17.169-40.4-26.111v-24.295c21.679-12.389,38.966-32.393,49.257-56.991
				c6.311-2.421,18.18-7.995,29.359-18.817C395.877,217.63,405,194.518,405,167.5c0-20.195-4.362-47.479-25.144-62.767
				c-7.268-5.347-14.596-7.758-19.856-8.845V82.002l-0.065-0.493c-0.113-0.85-2.961-21.048-19.078-41.194
				C314.2,6.994,272.656,0,242.5,0s-71.7,6.994-98.356,40.314c-16.117,20.146-18.965,40.345-19.078,41.194L125,82.002v13.887
				c-5.261,1.087-12.589,3.498-19.856,8.845C84.362,120.021,80,147.305,80,167.5c0,27.018,9.123,50.13,26.384,66.839
				c11.179,10.822,23.048,16.396,29.359,18.816c10.289,24.602,27.587,44.614,49.258,56.992v24.295
				c-9.48,8.947-31.494,21.42-40.417,26.119c-97.482,31.626-99.542,89.368-99.582,91.816L45,485h395v-32.541
				C439.986,449.996,438.545,391.89,340.4,360.553z M360,197.5v-55v-31.14c3.285,0.989,7.278,2.691,11.217,5.642
				C383.505,126.206,390,143.668,390,167.5c0,23.186-7.34,42.047-21.816,56.062c-4.165,4.031-8.458,7.181-12.373,9.606
				C358.59,221.773,360,209.838,360,197.5z M116.816,223.561C102.34,209.547,95,190.686,95,167.5c0-41.167,19.031-52.86,30-56.181
				V142.5v55c0,12.336,1.41,24.271,4.19,35.668C125.275,230.743,120.981,227.593,116.816,223.561z M140,83.098
				c0.485-2.752,3.722-18.53,16.32-33.988C174.769,26.477,203.764,15,242.5,15c38.736,0,67.731,11.477,86.18,34.11
				c12.623,15.488,15.848,31.297,16.32,33.982v48.187L206.274,73.876L140,126.896V83.098z M148.401,244.511
				C142.827,229.998,140,214.182,140,197.5v-51.396l68.726-54.98L345,147.514V197.5c0,16.682-2.827,32.498-8.396,46.995
				c-9.359,24.203-26.242,43.571-47.567,54.553C275.075,306.315,259.418,310,242.5,310c-16.918,0-32.575-3.685-46.566-10.968
				C174.638,288.066,157.755,268.698,148.401,244.511z M285,317.3v17.312C279.87,339.974,263.614,355,242.5,355
				c-20.977,0-37.346-15.055-42.5-20.404v-17.298c13.182,5.108,27.424,7.702,42.5,7.702C257.581,325,271.828,322.404,285,317.3z
				 M215,470H60v-17.362c0.048-0.88,0.904-12.937,11.582-28.015c17.782-25.112,49.258-40.143,74.027-48.593
				c8.779,7.79,33.294,26.396,69.391,28.729V470z M255,390v80h-25v-80h-7.5c-29.277,0-51.042-12.936-61.88-21.119
				c9.119-5.154,22.526-13.219,31.626-20.842C200.892,356.18,219.027,370,242.5,370s41.608-13.82,50.254-21.961
				c9.111,7.633,22.541,15.708,31.661,20.862C313.638,377.08,291.953,390,262.5,390H255z M425,470H270v-65.241
				c36.121-2.334,60.646-20.964,69.409-28.745c24.918,8.367,56.549,23.318,74.223,48.471c10.718,15.254,11.344,27.458,11.368,28.096
				V470z"/>
			<path d="M242.5,235h20v-15H250v-32.5h-15v40C235,231.643,238.357,235,242.5,235z"/>
			<rect x="307.5" y="435" width="75" height="15"/>
			<rect x="102.5" y="435" width="75" height="15"/>
		</g>
	</g>
</g>
<g>
</g>
<g>
</g>
<g>
</g>
<g>
</g>
<g>
</g>
<g>
</g>
<g>
</g>
<g>
</g>
<g>
</g>
<g>
</g>
<g>
</g>
<g>
</g>
<g>
</g>
<g>
</g>
<g>
</g>
</svg>
